<svg xmlns="http://www.w3.org/2000/svg" viewBox="0 0 512 512" role="img" aria-labelledby="title desc">
  <title id="title">UltimateBuild mark</title>
  <desc id="desc">Angular graphite shield with a cyan artifact core and technical orbit lines.</desc>
  <defs>
    <linearGradient id="shell" x1="112" y1="66" x2="411" y2="448" gradientUnits="userSpaceOnUse">
      <stop offset="0" stop-color="#24303a"/>
      <stop offset="0.42" stop-color="#111923"/>
      <stop offset="1" stop-color="#05080d"/>
    </linearGradient>
    <linearGradient id="edge" x1="96" y1="66" x2="416" y2="446" gradientUnits="userSpaceOnUse">
      <stop offset="0" stop-color="#8ff6ff"/>
      <stop offset="0.5" stop-color="#18c7dd"/>
      <stop offset="1" stop-color="#0e7382"/>
    </linearGradient>
    <linearGradient id="core" x1="214" y1="172" x2="307" y2="316" gradientUnits="userSpaceOnUse">
      <stop offset="0" stop-color="#f2feff"/>
      <stop offset="0.18" stop-color="#7ff4ff"/>
      <stop offset="0.66" stop-color="#0fb8d1"/>
      <stop offset="1" stop-color="#075969"/>
    </linearGradient>
    <filter id="glow" x="-40%" y="-40%" width="180%" height="180%" color-interpolation-filters="sRGB">
      <feGaussianBlur stdDeviation="9" result="blur"/>
      <feColorMatrix in="blur" type="matrix" values="0 0 0 0 0.07 0 0 0 0 0.84 0 0 0 0 0.93 0 0 0 0.78 0"/>
      <feMerge>
        <feMergeNode/>
        <feMergeNode in="SourceGraphic"/>
      </feMerge>
    </filter>
    <clipPath id="shieldClip">
      <path d="M256 34 432 112v166c0 88-62 166-176 200C142 444 80 366 80 278V112L256 34Z"/>
    </clipPath>
  </defs>
  <rect width="512" height="512" rx="96" fill="#07090d"/>
  <g filter="url(#glow)" opacity="0.72">
    <path d="M113 120 256 57l143 63" fill="none" stroke="#22d3ee" stroke-width="10" stroke-linecap="round" stroke-linejoin="round"/>
    <path d="M82 239c48-34 102-54 164-58 78-5 141 21 184 65" fill="none" stroke="#1acfe5" stroke-width="4" stroke-linecap="round" opacity="0.72"/>
  </g>
  <path d="M256 34 432 112v166c0 88-62 166-176 200C142 444 80 366 80 278V112L256 34Z" fill="url(#edge)"/>
  <path d="M256 60 407 127v148c0 75-51 139-151 170-100-31-151-95-151-170V127L256 60Z" fill="url(#shell)"/>
  <g clip-path="url(#shieldClip)">
    <path d="M96 136 256 67l160 69-31 23-129-55-129 55-31-23Z" fill="#41515c" opacity="0.46"/>
    <path d="M105 271h83l35 44h66l35-44h83v34l-63 21-40 74-48 24-48-24-40-74-63-21v-34Z" fill="#03060a" opacity="0.58"/>
    <path d="M104 191h78l36-43h76l36 43h78v58h-96l-36-47h-40l-36 47h-96v-58Z" fill="#0b121b"/>
    <path d="M136 210h51l33-40h72l33 40h51" fill="none" stroke="#7eeeff" stroke-width="8" stroke-linecap="square" stroke-linejoin="miter" opacity="0.78"/>
    <path d="M145 307h57l29 38h50l29-38h57" fill="none" stroke="#20d6ec" stroke-width="8" stroke-linecap="square" stroke-linejoin="miter" opacity="0.68"/>
  </g>
  <g filter="url(#glow)">
    <path d="M256 154 315 197v72l-59 43-59-43v-72l59-43Z" fill="#061117" stroke="#8ff6ff" stroke-width="7" stroke-linejoin="round"/>
    <path d="M256 184 289 208v40l-33 24-33-24v-40l33-24Z" fill="url(#core)"/>
    <path d="M256 154v158M197 197l118 72M315 197l-118 72" fill="none" stroke="#c8fbff" stroke-width="3" opacity="0.62"/>
    <circle cx="256" cy="228" r="10" fill="#f2feff"/>
  </g>
  <path d="M104 126 256 58l152 68M90 255c48-33 102-52 163-57 72-5 132 17 178 56M111 356c38 49 87 82 145 100 58-18 107-51 145-100" fill="none" stroke="#9bf8ff" stroke-width="3" stroke-linecap="round" opacity="0.36"/>
  <path d="M69 70h96M347 70h96M69 442h96M347 442h96" fill="none" stroke="#22d3ee" stroke-width="8" stroke-linecap="square" opacity="0.5"/>
</svg>
